# xmcd
#
# Track frame offsets: 
#        150
#        15620
#        31975
#        53406
#        64935
#        84375
#        99917
#        118063
#        136037
#        153496
#        165476
#        181298
#        199328
#        213158
#        227621
#        242921
#        256722
#        273825
#
# Disc length: 3880 seconds
#
# Revision: 0
# Processed by: cddbd v1.5.1PL2 Copyright (c) Steve Scherf et al.
# Submitted via: ExactAudioCopy v0.95a3
#
DISCID=e10f2612
DTITLE=Bob Hall - At the Window
DYEAR=1993
DGENRE=Blues
TTITLE0=Detroit Rocks
TTITLE1=All I Got Is You
TTITLE2=Beehive Blues
TTITLE3=Mr Freddy Blues
TTITLE4=How Long Blues
TTITLE5=She's Gone
TTITLE6=Axel's Wheel
TTITLE7=Going Down Show
TTITLE8=Red River Boogie
TTITLE9=Gone Fishing
TTITLE10=Somebody's Watching Me
TTITLE11=Blues Before Sunrise
TTITLE12=At The Window
TTITLE13=The Sheik Of Araby (live)
TTITLE14=Texas Stomp (live)
TTITLE15=At The Window (live)
TTITLE16=Barrel House Boogie (live)
TTITLE17=Margie (live)
EXTD=
EXTT0=
EXTT1=
EXTT2=
EXTT3=
EXTT4=
EXTT5=
EXTT6=
EXTT7=
EXTT8=
EXTT9=
EXTT10=
EXTT11=
EXTT12=
EXTT13=
EXTT14=
EXTT15=
EXTT16=
EXTT17=
PLAYORDER=
